<svg xmlns="http://www.w3.org/2000/svg" xmlns:xlink="http://www.w3.org/1999/xlink" xml:space="preserve" version="1.1"  viewBox="0 0 170.73 216.95" x="0px" y="0px" fill-rule="evenodd" clip-rule="evenodd"><defs><style type="text/css">
  
   
  </style></defs><g><path class="fil0" d="M85.36 32.53c29.16,0 52.83,23.66 52.83,52.83 0,18.3 -9.48,35.27 -25.02,44.91 -4.18,2.61 -6.44,6.68 -6.44,11.6l0 21.68c0,5.51 -4.49,10 -10,10l-22.73 0c-5.51,0 -10,-4.49 -10,-10l0 -21.68c0,-4.92 -2.27,-9 -6.45,-11.59 -15.54,-9.64 -25.02,-26.63 -25.02,-44.92 0,-29.18 23.65,-52.83 52.83,-52.83zm-14.8 107.19l30.88 -5.34c1.56,-3.98 4.37,-7.37 8.22,-9.76 13.64,-8.44 21.86,-23.23 21.86,-39.26 0,-25.5 -20.66,-46.16 -46.16,-46.16 -25.5,0 -46.16,20.66 -46.16,46.16 0,16.04 8.23,30.81 21.86,39.27 5.47,3.4 8.87,8.83 9.5,15.1zm29.51 1.65l-29.4 5.08 0 3.54 29.39 -5.08 0 -3.05 0.01 -0.49zm-0.01 10.29l-29.39 5.08 0 3.54 29.39 -5.08 0 -3.54zm0 10.3l-27.23 4.7c0.37,0.14 0.76,0.22 1.17,0.22l22.73 0c1.83,0 3.33,-1.5 3.33,-3.33l0 -1.59z"/><path class="fil0" d="M82.03 3.33c0,-1.84 1.5,-3.33 3.33,-3.33 1.84,0 3.33,1.5 3.33,3.33l0 18.39c0,1.84 -1.5,3.33 -3.33,3.33 -1.84,0 -3.33,-1.5 -3.33,-3.33l0 -18.39z"/><path class="fil0" d="M25 29.72c-1.3,-1.3 -1.3,-3.42 0,-4.72 1.3,-1.3 3.42,-1.3 4.72,0l13 13c1.3,1.3 1.3,3.42 0,4.72 -1.3,1.3 -3.42,1.3 -4.72,0l-13 -13z"/><path class="fil0" d="M3.33 88.7c-1.84,0 -3.33,-1.5 -3.33,-3.33 0,-1.84 1.5,-3.33 3.33,-3.33l18.39 0c1.84,0 3.33,1.5 3.33,3.33 0,1.84 -1.5,3.33 -3.33,3.33l-18.39 0z"/><path class="fil0" d="M29.72 145.73c-1.3,1.3 -3.42,1.3 -4.72,0 -1.3,-1.3 -1.3,-3.42 0,-4.72l13 -13c1.3,-1.3 3.42,-1.3 4.72,0 1.3,1.3 1.3,3.42 0,4.72l-13 13z"/><path class="fil0" d="M145.73 141.01c1.3,1.3 1.3,3.42 0,4.72 -1.3,1.3 -3.42,1.3 -4.72,0l-13 -13c-1.3,-1.3 -1.3,-3.42 0,-4.72 1.3,-1.3 3.42,-1.3 4.72,0l13 13z"/><path class="fil0" d="M167.4 82.03c1.84,0 3.33,1.5 3.33,3.33 0,1.84 -1.5,3.33 -3.33,3.33l-18.39 0c-1.84,0 -3.33,-1.5 -3.33,-3.33 0,-1.84 1.5,-3.33 3.33,-3.33l18.39 0z"/><path class="fil0" d="M141.01 25c1.3,-1.3 3.42,-1.3 4.72,0 1.3,1.3 1.3,3.42 0,4.72l-13 13c-1.3,1.3 -3.42,1.3 -4.72,0 -1.3,-1.3 -1.3,-3.42 0,-4.72l13 -13z"/></g></svg>